<?xml version="1.0" encoding="UTF-8" standalone="no"?>
<!-- Created with Inkscape (http://www.inkscape.org/) -->

<svg
   xmlns:dc="http://purl.org/dc/elements/1.1/"
   xmlns:cc="http://creativecommons.org/ns#"
   xmlns:rdf="http://www.w3.org/1999/02/22-rdf-syntax-ns#"
   xmlns:svg="http://www.w3.org/2000/svg"
   xmlns="http://www.w3.org/2000/svg"
   xmlns:sodipodi="http://sodipodi.sourceforge.net/DTD/sodipodi-0.dtd"
   xmlns:inkscape="http://www.inkscape.org/namespaces/inkscape"
   width="744.09448819"
   height="1052.3622047"
   id="svg2"
   version="1.1"
   inkscape:version="0.48.4 r9943 custom"
   sodipodi:docname="drawing.svg">
  <defs
     id="defs4">
    <inkscape:path-effect
       effect="spiro"
       id="path-effect4579"
       is_visible="true" />
  </defs>
  <sodipodi:namedview
     id="base"
     pagecolor="#ffffff"
     bordercolor="#666666"
     borderopacity="1.0"
     inkscape:pageopacity="0.0"
     inkscape:pageshadow="2"
     inkscape:zoom="1.2409339"
     inkscape:cx="288.20144"
     inkscape:cy="598.55051"
     inkscape:document-units="px"
     inkscape:current-layer="layer1"
     showgrid="false"
     inkscape:window-width="1110"
     inkscape:window-height="755"
     inkscape:window-x="42"
     inkscape:window-y="23"
     inkscape:window-maximized="0" />
  <metadata
     id="metadata7">
    <rdf:RDF>
      <cc:Work
         rdf:about="">
        <dc:format>image/svg+xml</dc:format>
        <dc:type
           rdf:resource="http://purl.org/dc/dcmitype/StillImage" />
        <dc:title></dc:title>
      </cc:Work>
    </rdf:RDF>
  </metadata>
  <g
     inkscape:label="Layer 1"
     inkscape:groupmode="layer"
     id="layer1">
    <rect
       style="fill:#98beff;fill-opacity:1;stroke:none"
       id="rect2985"
       width="167.14287"
       height="90.000008"
       x="43.57943"
       y="362.36218"
       inkscape:export-filename="/Users/jeremylynch/Documents/GitHub/jeremylynch83.github.io/assets/img/portfolio/thumbnails/1.png"
       inkscape:export-xdpi="350"
       inkscape:export-ydpi="350" />
    <flowRoot
       xml:space="preserve"
       id="flowRoot3891"
       style="font-size:28px;font-style:normal;font-variant:normal;font-weight:900;font-stretch:normal;text-align:center;line-height:125%;letter-spacing:0px;word-spacing:0px;writing-mode:lr-tb;text-anchor:middle;fill:#000000;fill-opacity:1;stroke:none;font-family:Arial Black;-inkscape-font-specification:'Arial Black, Heavy'"><flowRegion
         id="flowRegion3893"><rect
           id="rect3895"
           width="150.86537"
           height="32.213245"
           x="50.467419"
           y="414.00305"
           style="font-size:28px;font-style:normal;font-variant:normal;font-weight:900;font-stretch:normal;text-align:center;line-height:125%;writing-mode:lr-tb;text-anchor:middle;font-family:Arial Black;-inkscape-font-specification:'Arial Black, Heavy'" /></flowRegion><flowPara
         id="flowPara3897"></flowPara></flowRoot>    <flowRoot
       xml:space="preserve"
       id="flowRoot3899"
       style="font-size:18px;font-style:normal;font-variant:normal;font-weight:bold;font-stretch:normal;text-align:center;line-height:125%;letter-spacing:0px;word-spacing:0px;writing-mode:lr-tb;text-anchor:middle;fill:#ffffff;fill-opacity:1;stroke:none;font-family:Arial;-inkscape-font-specification:Arial Bold"><flowRegion
         id="flowRegion3901"><rect
           id="rect3903"
           width="164.28758"
           height="33.823917"
           x="44.561657"
           y="414.53992"
           style="font-size:18px;font-style:normal;font-variant:normal;font-weight:bold;font-stretch:normal;text-align:center;line-height:125%;writing-mode:lr-tb;text-anchor:middle;fill:#ffffff;font-family:Arial;-inkscape-font-specification:Arial Bold" /></flowRegion><flowPara
         id="flowPara3905">Aneurysm</flowPara></flowRoot>    <rect
       style="fill:#4574c3;fill-opacity:1;stroke:none"
       id="rect2985-9"
       width="167.14287"
       height="90.000008"
       x="211.86525"
       y="363.36612"
       inkscape:export-filename="/Users/jeremylynch/Documents/GitHub/jeremylynch83.github.io/assets/img/portfolio/thumbnails/2.png"
       inkscape:export-xdpi="350"
       inkscape:export-ydpi="350" />
    <flowRoot
       transform="translate(168.28582,1.0039491)"
       xml:space="preserve"
       id="flowRoot3899-8"
       style="font-size:18px;font-style:normal;font-variant:normal;font-weight:bold;font-stretch:normal;text-align:center;line-height:125%;letter-spacing:0px;word-spacing:0px;writing-mode:lr-tb;text-anchor:middle;fill:#ffffff;fill-opacity:1;stroke:none;font-family:Arial;-inkscape-font-specification:Arial Bold"><flowRegion
         id="flowRegion3901-6"><rect
           id="rect3903-5"
           width="164.28758"
           height="33.823917"
           x="44.561657"
           y="414.53992"
           style="font-size:18px;font-style:normal;font-variant:normal;font-weight:bold;font-stretch:normal;text-align:center;line-height:125%;writing-mode:lr-tb;text-anchor:middle;fill:#ffffff;font-family:Arial;-inkscape-font-specification:Arial Bold" /></flowRegion><flowPara
         id="flowPara3905-3">Stroke</flowPara></flowRoot>    <rect
       style="fill:#98beff;fill-opacity:1;stroke:none"
       id="rect2985-9-4"
       width="167.14287"
       height="90.000008"
       x="381.48505"
       y="362.43414"
       inkscape:export-filename="/Users/jeremylynch/Documents/GitHub/jeremylynch83.github.io/assets/img/portfolio/thumbnails/3.png"
       inkscape:export-xdpi="350"
       inkscape:export-ydpi="350" />
    <flowRoot
       transform="translate(337.90562,0.07197698)"
       xml:space="preserve"
       id="flowRoot3899-8-5"
       style="font-size:18px;font-style:normal;font-variant:normal;font-weight:bold;font-stretch:normal;text-align:center;line-height:125%;letter-spacing:0px;word-spacing:0px;writing-mode:lr-tb;text-anchor:middle;fill:#ffffff;fill-opacity:1;stroke:none;font-family:Arial;-inkscape-font-specification:Arial Bold"><flowRegion
         id="flowRegion3901-6-0"><rect
           id="rect3903-5-9"
           width="164.28758"
           height="33.823917"
           x="44.561657"
           y="414.53992"
           style="font-size:18px;font-style:normal;font-variant:normal;font-weight:bold;font-stretch:normal;text-align:center;line-height:125%;writing-mode:lr-tb;text-anchor:middle;fill:#ffffff;font-family:Arial;-inkscape-font-specification:Arial Bold" /></flowRegion><flowPara
         id="flowPara3905-3-4">AV Fistula</flowPara></flowRoot>    <rect
       style="fill:#4574c3;fill-opacity:1;stroke:none"
       id="rect2985-9-4-5"
       width="167.14287"
       height="90.000008"
       x="42.245445"
       y="455.63184"
       inkscape:export-filename="/Users/jeremylynch/Documents/GitHub/jeremylynch83.github.io/assets/img/portfolio/thumbnails/4.png"
       inkscape:export-xdpi="350"
       inkscape:export-ydpi="350" />
    <flowRoot
       transform="translate(-1.3339742,85.365024)"
       xml:space="preserve"
       id="flowRoot3899-8-5-9"
       style="font-size:18px;font-style:normal;font-variant:normal;font-weight:bold;font-stretch:normal;text-align:center;line-height:125%;letter-spacing:0px;word-spacing:0px;writing-mode:lr-tb;text-anchor:middle;fill:#ffffff;fill-opacity:1;stroke:none;font-family:Arial;-inkscape-font-specification:Arial Bold"><flowRegion
         id="flowRegion3901-6-0-6"><rect
           id="rect3903-5-9-7"
           width="165.21956"
           height="70.171013"
           x="44.561657"
           y="414.53992"
           style="font-size:18px;font-style:normal;font-variant:normal;font-weight:bold;font-stretch:normal;text-align:center;line-height:125%;writing-mode:lr-tb;text-anchor:middle;fill:#ffffff;font-family:Arial;-inkscape-font-specification:Arial Bold" /></flowRegion><flowPara
         id="flowPara4153">Carotid Cavernous Fistula</flowPara></flowRoot>    <rect
       style="fill:#98beff;fill-opacity:1;stroke:none"
       id="rect2985-9-4-5-9"
       width="167.14287"
       height="90.000008"
       x="212.79723"
       y="456.56384"
       inkscape:export-filename="/Users/jeremylynch/Documents/GitHub/jeremylynch83.github.io/assets/img/portfolio/thumbnails/5.png"
       inkscape:export-xdpi="350"
       inkscape:export-ydpi="350" />
    <flowRoot
       transform="translate(169.21781,94.201648)"
       xml:space="preserve"
       id="flowRoot3899-8-5-9-8"
       style="font-size:18px;font-style:normal;font-variant:normal;font-weight:bold;font-stretch:normal;text-align:center;line-height:125%;letter-spacing:0px;word-spacing:0px;writing-mode:lr-tb;text-anchor:middle;fill:#ffffff;fill-opacity:1;stroke:none;font-family:Arial;-inkscape-font-specification:Arial Bold"><flowRegion
         id="flowRegion3901-6-0-6-3"><rect
           id="rect3903-5-9-7-5"
           width="164.28758"
           height="33.823917"
           x="44.561657"
           y="414.53992"
           style="font-size:18px;font-style:normal;font-variant:normal;font-weight:bold;font-stretch:normal;text-align:center;line-height:125%;writing-mode:lr-tb;text-anchor:middle;fill:#ffffff;font-family:Arial;-inkscape-font-specification:Arial Bold" /></flowRegion><flowPara
         id="flowPara3905-3-4-8-0">Spinal Vascular</flowPara></flowRoot>    <rect
       style="fill:#4574c3;fill-opacity:1;stroke:none"
       id="rect2985-9-4-5-9-9"
       width="167.14287"
       height="90.000008"
       x="384.28098"
       y="456.56381"
       inkscape:export-filename="/Users/jeremylynch/Documents/GitHub/jeremylynch83.github.io/assets/img/portfolio/thumbnails/6.png"
       inkscape:export-xdpi="350"
       inkscape:export-ydpi="350" />
    <flowRoot
       transform="translate(340.70156,94.201631)"
       xml:space="preserve"
       id="flowRoot3899-8-5-9-8-1"
       style="font-size:18px;font-style:normal;font-variant:normal;font-weight:bold;font-stretch:normal;text-align:center;line-height:125%;letter-spacing:0px;word-spacing:0px;writing-mode:lr-tb;text-anchor:middle;fill:#ffffff;fill-opacity:1;stroke:none;font-family:Arial;-inkscape-font-specification:Arial Bold"><flowRegion
         id="flowRegion3901-6-0-6-3-3"><rect
           id="rect3903-5-9-7-5-8"
           width="164.28758"
           height="33.823917"
           x="44.561657"
           y="414.53992"
           style="font-size:18px;font-style:normal;font-variant:normal;font-weight:bold;font-stretch:normal;text-align:center;line-height:125%;writing-mode:lr-tb;text-anchor:middle;fill:#ffffff;font-family:Arial;-inkscape-font-specification:Arial Bold" /></flowRegion><flowPara
         id="flowPara3905-3-4-8-0-2">More</flowPara></flowRoot>  </g>
  <g
     inkscape:groupmode="layer"
     id="layer2"
     inkscape:label="Layer"
     sodipodi:insensitive="true">
    <path
       sodipodi:type="arc"
       style="fill:#ffffff;fill-opacity:1;stroke:none"
       id="path3883"
       sodipodi:cx="119.56358"
       sodipodi:cy="403.51715"
       sodipodi:rx="15.508246"
       sodipodi:ry="15.508246"
       d="m 135.07183,403.51715 a 15.508246,15.508246 0 1 1 -31.01649,0 15.508246,15.508246 0 1 1 31.01649,0 z"
       inkscape:transform-center-x="12.645568"
       inkscape:transform-center-y="-0.54981011"
       transform="matrix(0.5495149,0,0,0.5495149,61.490988,170.55545)" />
    <rect
       style="fill:#ffffff;fill-opacity:1;stroke:none"
       id="rect3885"
       width="59.928993"
       height="7.1902857"
       x="97.92263"
       y="399.32242"
       inkscape:transform-center-x="11.545952"
       inkscape:transform-center-y="2.0543727" />
    <path
       style="fill:#000000"
       d=""
       id="path4224"
       inkscape:connector-curvature="0" />
    <path
       inkscape:connector-curvature="0"
       id="path4243"
       d="m 293.02841,410.34787 c -8.14243,-1.6576 -13.62618,-9.19832 -11.89429,-16.35589 0.93768,-3.87522 3.65517,-7.28566 7.32338,-9.19079 3.13205,-1.62667 4.4584,-1.94265 8.15435,-1.94265 3.69595,0 5.0223,0.31598 8.15434,1.94265 1.68265,0.8739 2.44415,1.45745 3.84054,2.94304 5.09588,5.42138 5.10128,12.44692 0.0137,17.91589 -1.34351,1.44425 -2.13044,2.05177 -3.82245,2.95096 -1.17186,0.62277 -2.78668,1.30186 -3.58848,1.5091 -2.15589,0.55723 -6.0324,0.66512 -8.18117,0.22769 z m 10.17684,-1.2954 c 0.26733,-0.18221 0.25906,-0.56599 -0.056,-2.60219 -0.59979,-3.87547 -0.61812,-3.795 1.47477,-6.47166 2.64101,-3.37765 3.36579,-6.12324 2.43562,-9.22671 -0.26994,-0.90064 -0.83985,-2.15376 -1.26647,-2.78471 -0.90108,-1.33266 -2.41862,-2.59496 -3.11968,-2.59496 -0.61329,0 -3.70664,2.10938 -3.70664,2.52759 0,0.48018 0.47245,0.78214 1.51271,0.96683 0.5236,0.093 0.99571,0.24511 1.0491,0.33812 0.0534,0.093 -0.55162,0.59617 -1.3445,1.11815 -1.74137,1.14639 -1.84738,1.63733 -0.49436,2.28941 0.92856,0.44752 0.9363,0.461 0.39249,0.68378 -0.3051,0.125 -1.18248,0.51179 -1.94973,0.85954 -1.73827,0.78785 -1.83868,0.78759 -0.96631,-0.003 0.9617,-0.87108 0.80702,-1.35906 -0.52739,-1.6638 l -1.08869,-0.24863 1.61047,-1.15277 c 1.05338,-0.754 1.58615,-1.28653 1.54013,-1.53943 -0.0403,-0.22174 -0.64433,-0.61712 -1.41602,-0.92693 -0.74012,-0.29714 -1.32385,-0.61086 -1.29717,-0.69715 0.0267,-0.0863 0.71234,-0.76691 1.52366,-1.51248 2.08149,-1.91275 1.96342,-2.13246 -1.12923,-2.10108 -5.58974,0.0567 -7.77598,1.60346 -9.31525,6.59052 -0.57011,1.84706 -0.65499,2.37751 -0.45579,2.84813 0.37904,0.89555 0.30305,1.24174 -0.51054,2.32571 -0.41543,0.55348 -0.86962,1.24367 -1.00929,1.53374 -0.36649,0.76109 0.0455,1.74748 0.86967,2.08237 0.61615,0.25035 0.67067,0.36654 0.67067,1.42908 0,0.84031 0.11733,1.26471 0.42907,1.55205 0.31187,0.28743 0.39824,0.60009 0.31617,1.14449 -0.15694,1.04107 0.56797,1.98962 1.66666,2.1808 0.46208,0.0804 1.54663,0.0481 2.41011,-0.0718 0.86347,-0.11989 1.64626,-0.14295 1.73952,-0.0512 0.0933,0.0917 0.0767,0.70141 -0.0367,1.35492 -0.36322,2.09284 -0.48096,2.04457 4.97733,2.04033 2.61693,-0.002 4.89916,-0.0999 5.07163,-0.21743 z"
       style="fill:#ffffff" />
    <path
       inkscape:connector-curvature="0"
       id="path4351"
       d="m 466.26651,501.16056 c -4.81821,-0.21344 -9.16137,-2.98415 -11.4105,-7.27927 -1.61173,-3.0779 -1.96683,-6.75121 -0.97744,-10.11097 1.21996,-4.14269 4.39085,-7.4867 8.47639,-8.9392 0.67975,-0.24166 1.49707,-0.45441 2.22181,-0.57831 1.48297,-0.25353 3.1358,-0.25346 4.61588,1.7e-4 3.68082,0.63076 6.95176,2.77535 9.02625,5.91807 3.05059,4.62143 2.9528,10.71933 -0.24454,15.24887 -0.72483,1.02685 -1.66681,2.02716 -2.63599,2.79923 -2.00256,1.59526 -4.42231,2.59581 -6.95242,2.87476 -0.33022,0.0364 -1.49397,0.10231 -1.61115,0.0912 -0.0227,-0.002 -0.25139,-0.0132 -0.50829,-0.0246 z m 1.5661,-3.05056 c 1.24739,-0.10408 2.55402,-0.47212 3.72158,-1.04831 2.76783,-1.36591 4.8302,-3.93151 5.56112,-6.91809 0.21024,-0.85907 0.29668,-1.59518 0.29671,-2.52671 1e-5,-0.73741 -0.0407,-1.21867 -0.15785,-1.86833 -0.76369,-4.23313 -4.02081,-7.57759 -8.22637,-8.44695 -2.20072,-0.45494 -4.46299,-0.20207 -6.52182,0.72896 -1.63338,0.73865 -3.13097,1.97491 -4.1969,3.46455 -1.06507,1.48845 -1.70516,3.18202 -1.90876,5.05022 -0.0578,0.5307 -0.058,1.61131 -3.5e-4,2.14309 0.39592,3.6466 2.56919,6.77153 5.8275,8.37939 1.73738,0.85732 3.6215,1.20765 5.605,1.04218 z m -2.4654,-6.91903 c -0.004,-1.10188 -0.0177,-2.01372 -0.0303,-2.02631 -0.0126,-0.0126 -0.92443,-0.0262 -2.02631,-0.0303 l -2.00343,-0.007 0,-1.51011 0,-1.51009 2.00343,-0.007 c 1.10188,-0.004 2.01373,-0.0177 2.02631,-0.0303 0.0126,-0.0126 0.0262,-0.92442 0.0303,-2.02631 l 0.007,-2.00343 1.5101,0 1.51011,0 0.007,2.00343 c 0.004,1.10189 0.0177,2.01373 0.0303,2.02631 0.0126,0.0126 0.92443,0.0262 2.02631,0.0303 l 2.00344,0.007 0,1.51009 0,1.51011 -2.00344,0.007 c -1.10188,0.004 -2.01372,0.0177 -2.02631,0.0303 -0.0126,0.0126 -0.0262,0.92443 -0.0303,2.02631 l -0.007,2.00343 -1.51011,0 -1.5101,0 -0.007,-2.00343 z"
       style="fill:#ffffff"
       inkscape:transform-center-x="8.3290015"
       inkscape:transform-center-y="-1.8184988e-05" />
    <path
       inkscape:connector-curvature="0"
       id="path4418"
       d="m 292.27199,503.31816 c -0.0768,-0.24202 -0.0254,-0.47654 0.14095,-0.6429 0.41637,-0.41637 1.03663,-0.12994 0.96981,0.44784 -0.0728,0.62952 -0.92535,0.77924 -1.11076,0.19506 z m 6.05765,-0.38575 c -0.97691,-1.59296 -1.47593,-3.71009 -1.35878,-5.76472 0.0691,-1.21165 0.19072,-1.73202 0.59706,-2.55416 0.7362,-1.48954 1.05103,-1.4574 1.79611,0.18338 0.40896,0.9006 1.01653,1.77996 1.96946,2.85046 0.78828,0.88555 1.31223,1.6139 1.22426,1.70186 -0.23245,0.23245 -1.80808,-0.69694 -2.98089,-1.75826 -0.5693,-0.51519 -1.08193,-0.9367 -1.13918,-0.9367 -0.22001,0 -0.0845,3.48391 0.18101,4.65372 0.44653,1.9674 0.47341,2.19516 0.25909,2.19516 -0.10897,0 -0.35563,-0.25683 -0.54814,-0.57074 z m -6.69902,-1.05367 c -0.42048,-0.3388 -0.49612,-0.75747 -0.21052,-1.16523 0.286,-0.40832 0.92904,-0.49038 1.25877,-0.16065 0.31034,0.31034 0.25645,0.92274 -0.11042,1.25475 -0.38458,0.34804 -0.57611,0.36257 -0.93783,0.0711 z m -0.98886,-2.4498 c -0.29551,-0.29551 -0.26229,-0.9419 0.0652,-1.26942 0.36997,-0.36998 0.70612,-0.34757 1.12894,0.0753 0.42282,0.42282 0.44524,0.75896 0.0753,1.12894 -0.32752,0.32752 -0.97391,0.36074 -1.26943,0.0652 z m -0.73757,-2.42345 c -0.69256,-0.69257 -0.23821,-1.75612 0.75022,-1.75612 0.49182,0 1.00591,0.55847 1.00591,1.09274 0,0.41917 -0.61836,1.01461 -1.05368,1.01461 -0.19317,0 -0.50927,-0.15805 -0.70245,-0.35123 z m 16.24092,-0.92197 c -0.35489,-0.41049 -1.31798,-2.11582 -2.14021,-3.78962 -2.81407,-5.72856 -4.00597,-7.00278 -7.82743,-8.36798 -0.46146,-0.16486 -1.1239,-0.56842 -1.47209,-0.8968 -0.93286,-0.8798 -0.79592,-1.47535 0.95698,-4.16184 1.70735,-2.61667 2.07173,-3.32572 2.43224,-4.73294 0.36323,-1.41784 0.24185,-2.96152 -0.33133,-4.2135 -0.72708,-1.58815 -1.95109,-2.18339 -3.37307,-1.64033 -1.40745,0.53751 -2.51929,2.16698 -2.97953,4.36667 -0.3077,1.4707 -0.43281,1.68256 -0.74303,1.25831 -0.37274,-0.50975 -0.30157,-2.81895 0.12994,-4.21602 0.49824,-1.6131 1.74693,-2.90499 3.12814,-3.23633 2.48833,-0.59694 4.80279,0.54781 5.65788,2.79842 0.51863,1.36504 0.63337,3.63089 0.258,5.09493 -0.34947,1.36299 -1.45546,3.49434 -2.70411,5.21107 -0.50197,0.69014 -0.96176,1.50022 -1.02175,1.80018 -0.10374,0.51871 -0.0672,0.56301 0.74706,0.90573 2.06851,0.87062 2.65579,1.17454 3.58091,1.85306 1.0586,0.77644 2.39524,2.42551 3.11435,3.84234 0.24583,0.48435 0.90506,2.07931 1.46494,3.54436 0.55989,1.46505 1.25946,3.14209 1.55459,3.72676 0.86857,1.72063 0.66482,2.12277 -0.43248,0.85353 z m -24.14545,-0.96586 c -0.29174,-1.45491 -0.83254,-3.57114 -0.94006,-3.67867 -0.0506,-0.0506 -0.78793,0.34583 -1.63845,0.881 -1.66838,1.04977 -2.20386,1.24101 -2.29153,0.81834 -0.0732,-0.35291 4.10485,-4.73785 4.51432,-4.73785 0.78268,0 1.14342,2.38218 1.0704,7.0684 -0.0166,1.06989 -0.47486,0.84471 -0.71468,-0.35122 z m 7.16803,-1.10462 c -0.4468,-0.4468 -0.51612,-0.62581 -0.42499,-1.09757 0.22213,-1.15007 1.49619,-1.56207 2.31096,-0.74731 0.7456,0.7456 0.50968,1.84332 -0.46951,2.18467 -0.77475,0.27008 -0.81664,0.26004 -1.41646,-0.33979 z m -0.36108,-3.16805 c -0.5043,-0.29373 -0.87747,-1.19268 -0.75845,-1.82709 0.26713,-1.42394 2.15963,-1.84216 3.07427,-0.67938 0.50245,0.63876 0.46588,1.4924 -0.0924,2.15584 -0.37568,0.44647 -0.58155,0.53938 -1.18538,0.53497 -0.40191,-0.003 -0.86904,-0.0859 -1.03807,-0.18434 z m -14.12049,-2.74752 c 0.16049,-0.98897 1.0805,-2.72151 1.9713,-3.7123 1.64638,-1.83117 3.6439,-2.93354 8.15401,-4.49998 3.51732,-1.22162 4.40305,-1.65574 5.01491,-2.45793 0.51282,-0.67233 0.69157,-0.75052 0.83878,-0.36688 0.1756,0.45761 -0.24469,1.5047 -0.84491,2.10491 -0.72767,0.72767 -2.05128,1.35877 -5.36,2.55564 -4.82669,1.74597 -7.0398,3.18981 -8.62883,5.62946 -0.502,0.77073 -0.98893,1.40131 -1.08207,1.40131 -0.0974,0 -0.12426,-0.27788 -0.0632,-0.65423 z m 14.41991,-1.46185 c -0.18283,-0.20203 -0.32575,-0.62196 -0.32575,-0.95713 0,-0.82104 0.48816,-1.31709 1.29613,-1.31709 1.2489,0 1.88268,1.42485 1.00185,2.25234 -0.53428,0.50193 -1.52782,0.51295 -1.97223,0.0219 z m 1.18846,-2.89882 c -0.79699,-0.55825 -0.30231,-1.83398 0.71115,-1.83398 0.49181,0 1.0059,0.55848 1.0059,1.09275 0,0.40258 -0.61202,1.0146 -1.0146,1.0146 -0.17168,0 -0.48778,-0.12302 -0.70245,-0.27337 z m 0.87411,-2.22033 c -0.33529,-0.3353 -0.24505,-0.9746 0.17957,-1.27201 0.21466,-0.15035 0.45174,-0.27338 0.52683,-0.27338 0.23274,0 0.83899,0.68888 0.83899,0.95333 0,0.64468 -1.07927,1.05818 -1.54539,0.59206 z m 1.32587,-1.73507 c -0.35302,-0.20561 -0.41245,-1.03984 -0.0966,-1.3557 0.11591,-0.11591 0.37669,-0.21074 0.57952,-0.21074 0.20283,0 0.46362,0.0948 0.57952,0.21074 0.33392,0.33391 0.25604,1.15756 -0.12894,1.36359 -0.41503,0.22212 -0.54044,0.22106 -0.93352,-0.008 z m 1.16503,-1.8196 c -0.18706,-0.48747 0.0127,-0.88832 0.44266,-0.88832 0.55395,0 0.86775,0.48744 0.55579,0.86334 -0.28831,0.34738 -0.86916,0.36192 -0.99845,0.025 z"
       style="fill:#ffffff" />
    <path
       inkscape:connector-curvature="0"
       id="path4416"
       d="m 292.4798,503.25257 c -0.12744,-0.3321 0.26716,-0.64857 0.573,-0.45954 0.29077,0.17971 0.12145,0.71012 -0.2267,0.71012 -0.13758,0 -0.29341,-0.11276 -0.3463,-0.25058 z m 5.77888,-0.83564 c -0.15749,-0.22357 -0.48166,-1.02301 -0.72036,-1.77655 -0.73847,-2.33115 -0.53817,-5.05709 0.47678,-6.48859 0.18832,-0.26562 0.40405,-0.48293 0.47939,-0.48293 0.0753,0 0.28728,0.334 0.47098,0.74224 0.48878,1.08625 1.47774,2.55231 2.43587,3.611 1.30361,1.44045 0.77481,1.41338 -1.13601,-0.0582 -0.53123,-0.4091 -1.15517,-0.94773 -1.38653,-1.19695 -0.23136,-0.24923 -0.48819,-0.41139 -0.57074,-0.36037 -0.25355,0.1567 -0.1663,3.46827 0.129,4.89619 0.15349,0.74222 0.24058,1.38798 0.19352,1.43504 -0.047,0.0471 -0.21441,-0.0974 -0.3719,-0.32093 z m -6.66485,-0.76148 c -0.34484,-0.34484 -0.35154,-0.45238 -0.0536,-0.85982 0.45761,-0.62583 1.47953,0.0756 1.06624,0.73188 -0.26377,0.41886 -0.67035,0.47022 -1.01263,0.12794 z m -0.79755,-2.43791 c -0.36056,-0.43444 -0.0657,-1.01265 0.48399,-0.94907 0.39074,0.0452 0.46785,0.14095 0.46785,0.58095 0,0.4004 -0.088,0.53941 -0.36659,0.57922 -0.20162,0.0288 -0.46499,-0.0662 -0.58525,-0.2111 z m -0.79174,-2.3124 c -0.34508,-0.34508 -0.35712,-1.01857 -0.0231,-1.29574 0.43913,-0.36445 1.21345,-0.15379 1.40041,0.381 0.3048,0.87186 -0.73171,1.56029 -1.37725,0.91474 z m 15.86851,-1.40961 c -0.30557,-0.44413 -1.03193,-1.80733 -1.61415,-3.02932 -2.33082,-4.89211 -3.76577,-6.76624 -5.98997,-7.82332 -0.68884,-0.32737 -1.6255,-0.72786 -2.08148,-0.88996 -0.45597,-0.16211 -1.06842,-0.51835 -1.36099,-0.79166 -0.88349,-0.8253 -0.76075,-1.36196 0.88917,-3.88781 1.75002,-2.6791 2.1972,-3.54413 2.5558,-4.94388 0.3455,-1.34861 0.23063,-2.92142 -0.30415,-4.16456 -1.54079,-3.58166 -5.48839,-2.23596 -6.6302,2.26018 -0.17641,0.69468 -0.39318,1.25861 -0.48169,1.25317 -0.0885,-0.005 -0.16094,-0.77929 -0.16094,-1.71965 0,-1.51867 0.0552,-1.82208 0.49364,-2.71499 0.91249,-1.85821 2.45347,-2.73464 4.48436,-2.55049 2.70909,0.24565 4.24165,2.33489 4.24165,5.78233 0,2.31667 -0.83348,4.34469 -3.03905,7.39453 -1.01986,1.41026 -1.16384,2.1744 -0.47319,2.51145 0.24146,0.11784 1.19669,0.57455 2.12274,1.01492 1.41518,0.67298 1.87733,1.00477 2.89773,2.08038 1.41184,1.48821 2.18225,2.86666 3.39757,6.07905 0.47557,1.25701 1.1073,2.83834 1.40387,3.51404 0.59393,1.35321 0.61467,1.4331 0.37204,1.4331 -0.0919,0 -0.41718,-0.36338 -0.72276,-0.80751 z m -23.64566,-0.24616 c -0.092,-0.24147 -0.30871,-1.12865 -0.48149,-1.97151 -0.4764,-2.32402 -0.45316,-2.31267 -2.31747,-1.13081 -1.56579,0.99262 -2.33878,1.26835 -2.03525,0.72599 0.32792,-0.58598 3.94734,-4.29694 4.19093,-4.29694 0.45922,0 0.77808,1.19242 0.97891,3.66071 0.13643,1.67683 0.14063,2.56721 0.0139,2.93018 l -0.18214,0.52141 -0.16733,-0.43903 z m 7.08938,-1.37483 c -0.42619,-0.47093 -0.3739,-1.35674 0.0997,-1.68843 0.21466,-0.15036 0.53436,-0.27338 0.71043,-0.27338 0.43136,0 1.18224,0.77569 1.18224,1.2213 0,0.89114 -1.38886,1.40735 -1.99233,0.74051 z m -0.21669,-3.08906 c -1.20993,-0.52684 -1.2216,-2.20836 -0.0194,-2.79826 0.56544,-0.27745 0.74086,-0.2933 1.18942,-0.1075 0.65914,0.27302 1.03901,0.80295 1.03901,1.44944 0,0.72672 -0.29989,1.17514 -0.97436,1.45696 -0.69798,0.29163 -0.56329,0.2917 -1.23465,-5.2e-4 z m -14.12123,-3.04355 c 0.003,-0.51375 0.7825,-2.01019 1.552,-2.97895 1.49772,-1.88554 3.67319,-3.12295 8.26503,-4.70117 3.38304,-1.16277 4.09792,-1.49745 4.95641,-2.32042 0.72436,-0.6944 0.99288,-0.54914 0.62268,0.33687 -0.53808,1.2878 -1.70977,1.9728 -5.99687,3.50586 -4.46525,1.59677 -6.76881,3.03913 -8.37962,5.24686 -0.48889,0.67005 -0.91869,1.21828 -0.95512,1.21828 -0.0364,0 -0.0654,-0.1383 -0.0645,-0.30733 z m 14.33792,-1.24311 c -0.38576,-0.42626 -0.36965,-1.30904 0.0305,-1.67117 0.69429,-0.62833 1.96181,-0.0984 1.96181,0.82023 0,0.93036 -1.38507,1.52194 -1.99232,0.85094 z m 1.039,-2.94023 c -0.32753,-0.32752 -0.36074,-0.97391 -0.0652,-1.26942 0.49664,-0.49665 1.54539,-0.0438 1.54539,0.66732 0,0.41902 -0.45904,0.87807 -0.87806,0.87807 -0.17938,0 -0.45032,-0.12419 -0.6021,-0.27597 z m 0.94814,-2.27666 c -0.31908,-0.38447 -0.011,-0.87182 0.55116,-0.87182 0.34947,0 0.41989,0.0884 0.41989,0.52684 0,0.4004 -0.088,0.53941 -0.36659,0.57922 -0.20162,0.0288 -0.47363,-0.0766 -0.60446,-0.23424 z m 1.2696,-1.69719 c -0.55521,-0.55521 -0.007,-1.37451 0.73039,-1.09156 0.52583,0.20179 0.24993,1.30229 -0.32649,1.30229 -0.10625,0 -0.28801,-0.0948 -0.4039,-0.21073 z m 1.25313,-1.82062 c -0.1598,-0.41645 0.21474,-0.71017 0.55039,-0.4316 0.208,0.17262 0.22557,0.28378 0.0737,0.46671 -0.26298,0.31686 -0.49406,0.30387 -0.62414,-0.0351 z"
       style="fill:#ffffff" />
    <path
       inkscape:connector-curvature="0"
       id="path4414"
       d="m 292.57862,503.119 c 0.10854,-0.32563 0.4866,-0.37963 0.4866,-0.0695 0,0.15293 -0.12512,0.27806 -0.27805,0.27806 -0.15293,0 -0.24678,-0.0938 -0.20855,-0.20854 z m 5.52829,-1.13614 c -0.6708,-1.32593 -0.90965,-2.44542 -0.91208,-4.27492 -0.002,-1.63821 0.0503,-1.95659 0.47064,-2.8537 0.26019,-0.55538 0.58397,-1.00978 0.71951,-1.00978 0.13553,0 0.53341,0.57294 0.88416,1.2732 0.35076,0.70025 1.11755,1.81576 1.70396,2.47891 0.58642,0.66314 1.02388,1.24806 0.97213,1.29981 -0.12145,0.12144 -1.70562,-0.97128 -2.77776,-1.91602 -0.45895,-0.40441 -0.89273,-0.677 -0.96396,-0.60577 -0.21287,0.21286 -0.13345,3.4385 0.11625,4.72178 0.25606,1.31595 0.17507,1.65327 -0.21285,0.88649 z m -6.5587,-0.49925 c -0.24748,-0.64492 0.4656,-1.21448 0.93403,-0.74605 0.39037,0.39038 0.14491,1.00947 -0.40024,1.00947 -0.23799,0 -0.47819,-0.11854 -0.53379,-0.26342 z m -0.70245,-2.45858 c -0.13912,-0.36253 0.0495,-0.79025 0.34851,-0.79025 0.35155,0 0.69962,0.47371 0.57901,0.78802 -0.13165,0.34308 -0.79611,0.34469 -0.92752,0.002 z m -0.77297,-2.16552 c -0.30658,-0.24826 -0.37049,-0.42787 -0.2802,-0.78758 0.16764,-0.66796 0.93714,-0.83794 1.37052,-0.30275 0.40646,0.50196 0.40294,0.62813 -0.0296,1.0607 -0.43256,0.43256 -0.55874,0.43609 -1.06069,0.0296 z m 16.00928,-1.18362 c -0.20335,-0.25853 -1.16507,-2.03831 -2.13716,-3.95508 -1.04234,-2.05533 -2.15849,-3.98486 -2.7207,-4.70338 -1.06622,-1.36269 -2.56477,-2.46373 -3.98596,-2.92867 -1.93311,-0.63241 -2.94374,-1.41196 -2.94374,-2.27063 0,-0.21371 0.44666,-1.09208 0.99258,-1.95196 2.06008,-3.24478 2.41607,-3.87666 2.81001,-4.98785 0.93216,-2.62925 0.2294,-5.66916 -1.54053,-6.66391 -2.07066,-1.16378 -4.40477,0.63903 -5.30862,4.10024 -0.1461,0.55949 -0.30681,1.05843 -0.35712,1.10874 -0.20092,0.20091 -0.32619,-0.93463 -0.22986,-2.08363 0.26289,-3.13572 2.41302,-5.16788 5.09191,-4.81251 1.22929,0.16307 1.89222,0.47509 2.63551,1.24043 1.00322,1.03298 1.41581,2.30117 1.42781,4.38865 0.0135,2.35887 -0.48974,3.72675 -2.46816,6.70805 -1.39251,2.09838 -1.64067,2.68246 -1.33863,3.1506 0.071,0.10999 0.72612,0.43143 1.4559,0.71432 3.61653,1.4019 5.32494,3.44286 7.3463,8.77627 0.46924,1.2381 1.06535,2.75356 1.3247,3.3677 0.52338,1.23935 0.50486,1.51339 -0.0542,0.80262 z m -24.24795,-2.27116 c -0.22519,-1.01455 -0.49695,-1.96107 -0.6039,-2.10338 -0.16459,-0.21899 -0.40748,-0.12229 -1.58133,0.62954 -1.49866,0.95987 -2.21318,1.2973 -2.21318,1.04517 0,-0.20455 3.55614,-4.04887 3.94844,-4.26842 0.43562,-0.24378 0.58823,-0.006 0.88016,1.37224 0.27257,1.2867 0.36399,5.16949 0.1217,5.16949 -0.0784,0 -0.3267,-0.83009 -0.55189,-1.84464 z m 7.54323,0.43973 c -0.42192,-0.42192 -0.44578,-0.84051 -0.0778,-1.36582 0.32464,-0.46349 1.1484,-0.52395 1.55801,-0.11434 0.40961,0.40962 0.34916,1.23337 -0.11434,1.55802 -0.5253,0.36793 -0.94389,0.34408 -1.36583,-0.0779 z m -0.63997,-3.40168 c -1.02084,-0.87809 -0.37006,-2.56914 0.9887,-2.56914 0.39889,0 0.78224,0.13371 1.02093,0.35609 1.49133,1.38938 -0.46395,3.54259 -2.00963,2.21305 z m -13.57907,-2.98358 c -0.0121,-0.71191 1.12964,-2.4368 2.39557,-3.61904 1.59011,-1.48499 3.40704,-2.41169 7.41761,-3.78328 3.24213,-1.10879 3.9533,-1.43387 4.84002,-2.21242 0.68926,-0.60518 0.83557,-0.38108 0.35629,0.54576 -0.52995,1.0248 -1.69011,1.66803 -5.35637,2.9697 -4.03123,1.43126 -5.94966,2.45755 -7.55334,4.04074 -0.7418,0.73233 -1.51646,1.56858 -1.72147,1.85834 -0.29452,0.41628 -0.37391,0.45829 -0.37831,0.2002 z m 14.12072,-1.24528 c -0.34268,-0.523 -0.2062,-1.05751 0.36571,-1.43224 0.93543,-0.61292 2.01688,0.78261 1.22226,1.57723 -0.4382,0.4382 -1.2547,0.36364 -1.58797,-0.14499 z m 1.19108,-2.65274 c -0.47397,-0.33198 -0.50118,-0.80114 -0.0692,-1.19211 0.44015,-0.39833 0.83663,-0.36431 1.16161,0.0997 0.3518,0.50228 0.34494,0.59181 -0.0779,1.0146 -0.42278,0.42279 -0.51232,0.42966 -1.01459,0.0779 z m 0.95606,-2.30227 c -0.22247,-0.22247 -0.11607,-0.7238 0.17752,-0.83646 0.37304,-0.14315 0.84172,0.30928 0.7008,0.6765 -0.10674,0.27814 -0.65947,0.37881 -0.87832,0.15996 z m 1.23938,-1.66267 c -0.41389,-0.23162 -0.38115,-0.80015 0.0597,-1.03606 0.26903,-0.14399 0.42745,-0.14004 0.61464,0.0154 0.59116,0.49062 -0.006,1.3947 -0.67431,1.02074 z m 1.27773,-1.99593 c 0,-0.14488 0.11854,-0.26342 0.26342,-0.26342 0.14488,0 0.26341,0.11854 0.26341,0.26342 0,0.14488 -0.11853,0.26342 -0.26341,0.26342 -0.14488,0 -0.26342,-0.11854 -0.26342,-0.26342 z"
       style="fill:#ffffff" />
    <path
       inkscape:connector-curvature="0"
       id="path4412"
       d="m 292.63369,503.16406 c -0.11996,-0.19409 0.15707,-0.40367 0.31923,-0.24151 0.16696,0.16697 0.13585,0.40499 -0.053,0.40499 -0.0909,0 -0.21072,-0.0736 -0.26628,-0.16348 z m 5.38041,-1.5337 c -0.85629,-1.60177 -1.05287,-4.72869 -0.4029,-6.4089 0.60419,-1.56188 0.75379,-1.58139 1.51201,-0.19719 0.35881,0.65503 1.08209,1.72439 1.60727,2.37635 0.52519,0.65196 0.88348,1.18538 0.79621,1.18538 -0.28417,0 -1.50555,-0.89257 -2.36546,-1.72864 -0.69086,-0.67171 -0.87033,-0.77046 -1.00708,-0.55414 -0.22576,0.35713 -0.21487,2.72806 0.0195,4.23841 0.19715,1.27063 0.14134,1.65151 -0.15952,1.08873 z m -6.35193,-0.14452 c -0.28053,-0.33802 -0.10349,-0.79249 0.30874,-0.79249 0.49479,0 0.7578,0.34683 0.55307,0.72936 -0.20958,0.39161 -0.56744,0.41782 -0.86181,0.0631 z m -0.81641,-2.46081 c -0.13912,-0.36253 0.0495,-0.79025 0.34851,-0.79025 0.35155,0 0.69962,0.47371 0.57901,0.78802 -0.13165,0.34308 -0.79611,0.34469 -0.92752,0.002 z m -0.73083,-2.23028 c -0.59608,-0.59607 0.10491,-1.58914 0.84294,-1.19416 0.61985,0.33174 0.35156,1.4049 -0.35123,1.4049 -0.15454,0 -0.37581,-0.0948 -0.49171,-0.21074 z m 15.72814,-1.67709 c -0.14954,-0.16903 -0.92282,-1.61125 -1.71839,-3.20493 -0.79558,-1.59368 -1.71329,-3.31478 -2.03936,-3.82466 -1.28459,-2.00873 -2.83302,-3.3005 -4.85742,-4.05227 -3.46186,-1.28558 -3.54325,-1.76373 -0.95627,-5.61785 1.86162,-2.77348 2.60328,-5.06614 2.25259,-6.96324 -0.4498,-2.43319 -1.5082,-3.60088 -3.26385,-3.60088 -0.97538,0 -1.54946,0.28053 -2.39605,1.1709 -0.75645,0.79558 -1.23405,1.70129 -1.65412,3.13689 -0.30462,1.04102 -0.30802,1.0447 -0.48374,0.52363 -0.23829,-0.70659 0.10383,-2.66136 0.65473,-3.741 0.8099,-1.58722 1.99309,-2.32042 3.74183,-2.31873 1.35598,0.001 2.11074,0.23252 2.9093,0.89124 1.72612,1.42387 2.28492,4.8281 1.26638,7.71494 -0.36487,1.03415 -1.14696,2.41352 -2.30027,4.05696 -1.66172,2.36792 -1.61487,2.83194 0.35202,3.48647 2.39241,0.79615 4.72871,2.88081 5.93868,5.29906 0.70059,1.40019 3.0309,7.35079 2.87864,7.35079 -0.029,0 -0.17515,-0.1383 -0.3247,-0.30732 z m -23.92179,-1.66832 c -0.37479,-1.67947 -0.61695,-2.41467 -0.79535,-2.41467 -0.0803,0 -0.84468,0.43177 -1.6986,0.9595 -0.85393,0.52773 -1.57941,0.88189 -1.6122,0.78704 -0.0328,-0.0949 0.49356,-0.78346 1.16966,-1.53024 1.81118,-2.00054 2.43283,-2.55878 2.7247,-2.44678 0.36048,0.13833 0.64993,1.62147 0.76945,3.9427 0.12008,2.33225 -0.12506,2.64103 -0.55766,0.70245 z m 7.45607,0.39512 c -0.42192,-0.42192 -0.44578,-0.84051 -0.0778,-1.36582 0.33752,-0.48189 1.13737,-0.51772 1.54334,-0.0692 0.41482,0.45837 0.36688,1.18604 -0.0997,1.51283 -0.5253,0.36793 -0.94389,0.34408 -1.36583,-0.0779 z m -0.26341,-3.18819 c -0.55137,-0.30157 -0.79026,-0.69578 -0.79026,-1.30403 0,-0.74977 0.47595,-1.29147 1.24248,-1.41413 1.38794,-0.22208 2.15888,1.46728 1.13627,2.48989 -0.45997,0.45998 -1.0182,0.54019 -1.58849,0.22827 z m -13.78222,-3.53598 c -0.007,-0.29196 0.76769,-1.64978 1.35352,-2.37213 1.43821,-1.77337 3.62841,-2.99843 8.22677,-4.60153 2.15862,-0.75255 3.79752,-1.43569 4.39323,-1.83122 1.08521,-0.72053 1.28638,-0.49557 0.42952,0.48032 -0.70224,0.79981 -2.07359,1.49481 -5.02154,2.54494 -4.58605,1.63365 -6.51375,2.73216 -8.3198,4.74109 -0.58209,0.64749 -1.05985,1.11482 -1.0617,1.03853 z m 13.92842,-0.9352 c -0.2695,-0.41131 -0.27393,-0.50758 -0.0425,-0.92196 0.18231,-0.3264 0.42834,-0.47917 0.83518,-0.51859 0.719,-0.0697 1.08063,0.21648 1.08063,0.8551 0,1.05142 -1.30152,1.45816 -1.87334,0.58545 z m 1.20073,-2.6759 c -0.13218,-0.0859 -0.20841,-0.37221 -0.17561,-0.65956 0.049,-0.4295 0.13622,-0.50778 0.56566,-0.50778 0.62597,0 0.98524,0.47134 0.70276,0.92197 -0.21976,0.35056 -0.74828,0.46923 -1.09281,0.24537 z m 0.9727,-2.24288 c -0.0685,-0.0685 -0.12447,-0.2746 -0.12447,-0.4581 0,-0.26035 0.10606,-0.32141 0.48293,-0.27805 0.34733,0.0399 0.48293,0.15418 0.48293,0.40679 0,0.35284 -0.58781,0.58293 -0.84139,0.32936 z m 1.10481,-1.90987 c -0.26907,-0.32421 0.0432,-0.79026 0.52955,-0.79026 0.39286,0 0.59381,0.4947 0.33004,0.81252 -0.26102,0.3145 -0.58711,0.30606 -0.85959,-0.0223 z m 1.4049,-1.75613 c 0,-0.16097 0.0849,-0.26437 0.18878,-0.22975 0.10383,0.0346 0.18879,0.138 0.18879,0.22975 0,0.0918 -0.085,0.19516 -0.18879,0.22976 -0.10383,0.0346 -0.18878,-0.0688 -0.18878,-0.22976 z"
       style="fill:#ffffff" />
    <path
       inkscape:connector-curvature="0"
       id="path4410"
       d="m 291.67019,501.41424 c -0.21214,-0.39637 0.17703,-0.82152 0.60254,-0.65824 0.34991,0.13427 0.34148,0.74873 -0.0121,0.88443 -0.38622,0.14821 -0.39102,0.14637 -0.59041,-0.22619 z m 6.01897,-0.76479 c -0.23617,-0.6774 -0.32142,-1.43441 -0.32138,-2.8537 5e-5,-1.65673 0.0594,-2.063 0.41675,-2.85371 0.22919,-0.50708 0.50575,-0.92114 0.61459,-0.92013 0.10884,0.001 0.4102,0.4554 0.66969,1.00977 0.25949,0.55437 0.87763,1.50932 1.37366,2.12212 0.85446,1.05562 1.06534,1.61827 0.39468,1.05307 -0.16963,-0.14295 -0.79748,-0.67694 -1.39525,-1.18667 -0.65888,-0.56184 -1.1699,-0.87543 -1.29779,-0.79639 -0.15577,0.0963 -0.18677,0.8127 -0.11849,2.73899 0.0508,1.43473 0.0683,2.60861 0.0387,2.60861 -0.0296,0 -0.19839,-0.41488 -0.37518,-0.92196 z m -7.60235,-3.89894 c -0.46651,-0.56211 0.21868,-1.42558 0.82716,-1.04239 0.41885,0.26377 0.47022,0.67035 0.12793,1.01263 -0.35267,0.35267 -0.67867,0.36283 -0.95509,0.0298 z m 15.39646,-2.34012 c -0.25841,-0.45614 -1.06096,-2.01473 -1.78345,-3.46353 -2.17227,-4.356 -3.60367,-5.86491 -6.74639,-7.1117 -2.36814,-0.93948 -2.86119,-1.57028 -2.21066,-2.82826 0.14996,-0.28999 0.75076,-1.25412 1.33513,-2.14253 2.44573,-3.71824 3.03877,-5.80471 2.32913,-8.19435 -0.39868,-1.3425 -1.03744,-2.21462 -1.94319,-2.65308 -1.98115,-0.95906 -4.10968,0.54753 -5.19001,3.67352 l -0.40377,1.16832 -0.0534,-0.93206 c -0.0656,-1.14385 0.30988,-2.4907 0.99475,-3.56849 0.38265,-0.60218 0.77252,-0.93799 1.5051,-1.29641 0.87056,-0.42592 1.13335,-0.47336 2.1995,-0.39708 2.69478,0.19281 4.22251,2.16617 4.22251,5.45421 0,2.27836 -0.8777,4.50998 -2.82889,7.19261 -1.51987,2.08963 -1.57235,2.66453 -0.29201,3.19869 2.44736,1.02103 3.38226,1.58269 4.50386,2.70575 0.63989,0.64072 1.43289,1.62426 1.76224,2.18567 0.56083,0.95598 3.25305,7.65442 3.12707,7.78039 -0.0317,0.0317 -0.26909,-0.31553 -0.52749,-0.77167 z m -23.66666,-1.54386 c -0.30895,-1.25421 -0.51048,-1.75895 -0.71751,-1.79709 -0.15835,-0.0292 -0.89948,0.3462 -1.64695,0.83415 -2.22778,1.45431 -2.16121,1.15024 0.31516,-1.43966 0.90044,-0.94172 1.72896,-1.71223 1.84117,-1.71223 0.1122,0 0.29529,0.33587 0.40686,0.74636 0.2732,1.00511 0.50717,4.07953 0.35403,4.65212 -0.10001,0.37395 -0.20382,0.13287 -0.55276,-1.28365 z m 7.60815,-2.14311 c -0.4815,-0.0781 -1.10108,-0.83302 -1.10108,-1.34168 0,-0.91389 1.03155,-1.64135 1.87352,-1.32123 1.6228,0.61698 0.94841,2.94186 -0.77244,2.66291 z m -13.81073,-4.16687 c 0.27798,-0.76452 0.9459,-1.6303 2.0661,-2.67813 1.46071,-1.36635 3.61168,-2.44155 7.64689,-3.82242 3.18459,-1.08979 3.58058,-1.26499 4.38051,-1.93808 0.68215,-0.57399 0.76134,-0.18359 0.11788,0.58112 -0.60863,0.72332 -2.12457,1.48295 -5.13114,2.57118 -4.60287,1.666 -5.86991,2.36639 -7.92593,4.38122 -0.70511,0.69098 -1.22456,1.09828 -1.15431,0.90511 z m 14.824,-3.15259 c -0.4665,-0.5621 0.21868,-1.42558 0.82716,-1.04239 0.60803,0.38291 0.39141,1.29737 -0.30732,1.29737 -0.16952,0 -0.40345,-0.11474 -0.51984,-0.25498 z m 2.16884,-4.03454 c -0.15977,-0.41636 0.0663,-0.83686 0.41392,-0.76991 0.1944,0.0375 0.30785,0.2193 0.30785,0.49351 0,0.50061 -0.55429,0.71287 -0.72177,0.2764 z"
       style="fill:#ffffff" />
    <path
       inkscape:connector-curvature="0"
       id="path4408"
       d="m 291.73867,501.3805 c -0.16525,-0.26737 0.19359,-0.57954 0.52153,-0.4537 0.15777,0.0605 0.22868,0.21805 0.16862,0.37455 -0.11985,0.31233 -0.51783,0.35797 -0.69015,0.0792 z m 5.87272,-1.4335 c -0.48494,-1.73253 -0.11913,-4.95033 0.6338,-5.57521 0.19612,-0.16276 0.31818,-0.0542 0.62642,0.55723 0.21055,0.41765 0.73849,1.26124 1.17318,1.87463 0.88474,1.24845 0.64333,1.23254 -0.78509,-0.0517 -0.48945,-0.44006 -0.9735,-0.80011 -1.07567,-0.80011 -0.30389,0 -0.43182,1.16621 -0.33022,3.01011 0.0525,0.95229 0.0664,1.73143 0.031,1.73143 -0.0355,0 -0.15847,-0.33586 -0.27337,-0.74635 z m -7.51936,-3.4455 c -0.14379,-0.26869 -0.12339,-0.41344 0.0881,-0.62495 0.37838,-0.37838 0.99648,-0.0544 0.92007,0.48228 -0.0733,0.51505 -0.75712,0.61182 -1.0082,0.14267 z m -8.09351,-3.579 c -0.36959,-1.43476 -0.56092,-1.91313 -0.80221,-2.00572 -0.13372,-0.0513 -0.81097,0.27 -1.505,0.71404 -0.69403,0.44403 -1.29855,0.77066 -1.34337,0.72584 -0.0809,-0.0809 2.0404,-2.50424 2.75995,-3.15299 0.66153,-0.59645 0.96204,0.1515 1.17663,2.92857 0.12873,1.66603 0.0183,1.97133 -0.286,0.79026 z m 21.93297,-1.75554 c -2.41026,-4.81134 -3.65105,-6.13395 -6.98082,-7.44116 -2.7245,-1.0696 -2.88378,-1.6075 -1.22317,-4.13063 2.44697,-3.71793 2.99853,-4.9976 3.01701,-6.99981 0.0354,-3.83551 -2.59225,-6.05169 -5.20825,-4.39268 -0.89676,0.56871 -1.71337,1.70025 -2.18791,3.03168 -0.56481,1.5847 -0.70311,0.67768 -0.19834,-1.30082 0.2621,-1.02733 1.21224,-2.27688 2.07454,-2.72825 0.58919,-0.30842 1.06132,-0.40514 1.97755,-0.40514 2.54305,0 3.87695,1.29481 4.34816,4.22071 0.37498,2.32847 -0.39748,4.88906 -2.27625,7.54532 -0.58068,0.82099 -1.22009,1.83843 -1.42091,2.26099 -0.36286,0.76348 -0.363,0.77115 -0.0225,1.22725 0.21076,0.28229 0.831,0.64532 1.61132,0.9431 2.72162,1.03864 4.42222,2.63799 5.80696,5.46124 0.82246,1.67685 2.18891,5.2101 2.01496,5.2101 -0.0435,0 -0.64305,-1.12586 -1.33238,-2.5019 z m -14.96948,-0.84749 c -1.15616,-0.90943 -0.01,-2.69196 1.38638,-2.15613 0.4675,0.1794 0.77652,1.08738 0.57086,1.67733 -0.30762,0.88243 -1.17451,1.0945 -1.95724,0.4788 z m -12.9312,-4.29898 c 0,-0.2845 1.32775,-1.80245 2.23041,-2.54993 1.2006,-0.9942 3.55591,-2.09982 6.90144,-3.23965 1.59368,-0.54297 3.31249,-1.21936 3.81957,-1.50308 1.03762,-0.58059 1.21072,-0.43742 0.35122,0.29049 -0.71995,0.60973 -2.00773,1.19027 -5.22447,2.35523 -3.85491,1.39608 -5.43381,2.26279 -7.1562,3.92827 -0.50708,0.49033 -0.92197,0.81373 -0.92197,0.71867 z m 14.5247,-2.64683 c -0.0685,-0.0685 -0.12448,-0.31412 -0.12448,-0.5459 0,-0.35614 0.0748,-0.41282 0.48294,-0.36586 0.38323,0.0441 0.48293,0.14619 0.48293,0.49459 0,0.30815 -0.10686,0.45433 -0.35845,0.49035 -0.19715,0.0282 -0.41447,-0.005 -0.48294,-0.0732 z m 2.06723,-4.11061 c -0.0682,-0.11035 -0.0413,-0.28327 0.0596,-0.38426 0.236,-0.23601 0.78624,-0.0301 0.69022,0.25823 -0.0977,0.29357 -0.59469,0.37709 -0.74985,0.12603 z"
       style="fill:#ffffff" />
    <path
       inkscape:connector-curvature="0"
       id="path4406"
       d="m 291.86959,501.20702 c 0.0346,-0.10383 0.138,-0.18879 0.22976,-0.18879 0.0917,0 0.19515,0.085 0.22976,0.18879 0.0346,0.10383 -0.0688,0.18878 -0.22976,0.18878 -0.16098,0 -0.26437,-0.0849 -0.22976,-0.18878 z m 5.66687,-3.68908 c 0.037,-1.07037 0.16144,-1.75421 0.42936,-2.35988 l 0.37723,-0.8528 0.71043,1.21573 c 0.39074,0.66865 0.79341,1.31571 0.89484,1.43792 0.39362,0.47428 -0.0794,0.18778 -0.82566,-0.5001 -0.45398,-0.41846 -0.88966,-0.68158 -1.03575,-0.62552 -0.15497,0.0595 -0.29144,0.45634 -0.35407,1.02961 -0.22084,2.02158 -0.24662,2.10759 -0.19638,0.65504 z m -7.37926,-1.05614 c -0.0654,-0.10586 0.002,-0.31277 0.14839,-0.45981 0.32006,-0.32006 0.65228,-0.16145 0.65228,0.31141 0,0.37301 -0.59384,0.48307 -0.80067,0.1484 z m -8.33118,-4.55965 c -0.37632,-1.31396 -0.60351,-1.38997 -1.82293,-0.60993 -0.55879,0.35746 -1.04645,0.61946 -1.08369,0.58222 -0.14733,-0.14733 2.49565,-2.82916 2.67745,-2.71681 0.21207,0.13107 0.6623,2.82696 0.55803,3.3414 -0.0384,0.18957 -0.1742,-0.0569 -0.32886,-0.59688 z m 21.96934,-1.35606 c -1.32068,-2.69153 -2.70693,-4.55669 -4.14834,-5.5815 -0.44285,-0.31485 -1.59289,-0.90485 -2.55565,-1.3111 -1.88185,-0.79409 -2.53753,-1.36067 -2.36591,-2.04443 0.0548,-0.21823 0.68053,-1.2885 1.39056,-2.37837 2.21952,-3.40688 2.73938,-4.68579 2.74251,-6.74687 0.003,-1.57412 -0.39994,-2.84023 -1.19927,-3.77407 -1.84988,-2.16116 -4.58012,-1.38439 -6.11649,1.74017 -0.25091,0.51028 -0.48445,0.89954 -0.51897,0.86501 -0.15673,-0.15672 0.50415,-2.12909 0.92799,-2.76955 1.19448,-1.80497 3.74145,-2.22837 5.70875,-0.94899 0.94448,0.61422 1.72245,2.28628 1.84427,3.96384 0.17125,2.35821 -0.63122,4.60785 -2.64293,7.40918 -1.24024,1.72706 -1.33809,1.91455 -1.33809,2.5638 0,0.66102 0.47786,1.12582 1.45363,1.41388 2.18673,0.64554 4.63411,2.65268 5.79302,4.75094 0.64179,1.16199 1.77262,3.85898 1.66371,3.96789 -0.0329,0.0329 -0.32041,-0.47097 -0.63879,-1.11983 z m -14.80313,-0.34558 c -0.54952,-0.63985 -0.50458,-1.43482 0.10409,-1.84124 0.68662,-0.45847 1.86155,0.17716 1.86155,1.00708 0,0.94736 -1.36933,1.52846 -1.96564,0.83416 z m -11.14293,-6.1501 c 1.16799,-1.20557 3.52434,-2.39271 7.39994,-3.72812 1.73789,-0.59883 3.39742,-1.20324 3.68786,-1.34313 0.4951,-0.23849 0.50613,-0.23651 0.17684,0.0316 -0.65249,0.53119 -1.94004,1.10332 -5.05762,2.24742 -3.17738,1.16603 -4.73077,1.92572 -6.21728,3.04058 l -0.84236,0.63174 0.85262,-0.88005 z m 12.64071,-1.01791 c -0.0581,-0.15138 -0.0214,-0.35943 0.0815,-0.46235 0.27316,-0.27316 0.73758,-0.0334 0.73758,0.38084 0,0.43309 -0.65901,0.49868 -0.81909,0.0815 z m 2.25764,-3.95265 c 0.0346,-0.10383 0.138,-0.18878 0.22976,-0.18878 0.0918,0 0.19515,0.0849 0.22976,0.18878 0.0346,0.10383 -0.0688,0.18879 -0.22976,0.18879 -0.16098,0 -0.26437,-0.085 -0.22976,-0.18879 z"
       style="fill:#ffffff" />
    <path
       inkscape:connector-curvature="0"
       id="path4456"
       d="m 459.08247,415.6188 c 1.48472,-0.47205 3.89525,-1.73391 5.9698,-3.12504 2.40171,-1.61053 2.38837,-1.60713 9.81074,-2.49935 1.65396,-0.19882 2.47482,-0.46668 4.00695,-1.30757 1.05978,-0.58164 2.14043,-1.29351 2.40145,-1.58194 0.4601,-0.50839 0.45705,-0.54811 -0.0994,-1.30075 -0.53879,-0.72876 -0.54828,-0.81555 -0.15485,-1.41601 0.30646,-0.4677 0.34831,-0.76619 0.15569,-1.11037 -0.23749,-0.42436 -0.29094,-0.39837 -0.54274,0.26392 -0.15362,0.40405 -0.27931,0.83072 -0.27931,0.94817 0,0.35735 -1.00792,0.50168 -1.27262,0.18222 -0.32867,-0.39664 -1.34754,-4.51708 -1.21967,-4.93248 0.055,-0.17877 0.16945,-0.99897 0.25427,-1.82267 0.14786,-1.43597 0.11695,-1.53887 -0.75082,-2.49938 -1.32332,-1.46477 -1.45469,-2.71257 -0.44342,-4.21214 0.76095,-1.12839 0.77258,-1.19087 0.3884,-2.08769 -0.21782,-0.50847 -0.45686,-1.07183 -0.53121,-1.25192 -0.17395,-0.42135 -1.50613,-1.01671 -2.74088,-1.2249 -0.78754,-0.13279 -1.31068,0.0106 -2.82873,0.77501 -3.2653,1.64437 -4.54141,1.52873 -7.43062,-0.67343 -0.71999,-0.54877 -1.85586,-1.14401 -2.52416,-1.32275 -1.45109,-0.38811 -1.79812,-0.1903 -2.52266,1.43793 -0.26299,0.59104 -1.07085,1.98017 -1.79523,3.08696 -0.72438,1.10679 -1.44718,2.5747 -1.60622,3.26202 -0.15905,0.68731 -0.34323,3.06987 -0.4093,5.29456 -0.0661,2.22469 -0.21836,4.38573 -0.33842,4.80231 -0.26861,0.93208 -1.29691,1.4146 -1.57362,0.7384 -0.10173,-0.24858 -0.1793,-2.50704 -0.17238,-5.01879 0.009,-3.42849 0.12376,-4.9965 0.45864,-6.29063 0.53735,-2.07653 1.55347,-5.00905 2.13593,-6.16425 0.23669,-0.46944 0.38859,-1.27784 0.34325,-1.82672 -0.10131,-1.22617 -0.1088,-1.22563 -4.99666,0.36382 -1.98577,0.64574 -4.00657,1.21088 -4.49066,1.25587 -0.92504,0.086 -4.00297,1.17605 -5.66455,2.00614 l -0.9786,0.48889 0,-0.77973 c 0,-0.63652 0.25163,-0.96796 1.37005,-1.80455 0.88633,-0.663 1.73859,-1.06792 2.41389,-1.14689 1.43172,-0.16742 4.19391,-0.88458 7.30691,-1.89713 1.43528,-0.46685 3.13806,-0.93129 3.78393,-1.03208 0.64588,-0.10079 1.63047,-0.49293 2.18798,-0.87142 0.85746,-0.58212 1.31987,-0.69387 3.00105,-0.72525 1.09307,-0.0204 2.31799,-0.16966 2.72204,-0.33167 0.40404,-0.16201 1.04992,-0.29465 1.43528,-0.29477 0.38536,-1.1e-4 1.46397,-0.36706 2.39691,-0.81543 0.93294,-0.44839 2.22469,-0.9556 2.87057,-1.12714 1.135,-0.30146 1.17488,-0.34624 1.19096,-1.33749 0.0132,-0.81552 0.14686,-1.09162 0.65241,-1.34795 1.43537,-0.72778 4.20292,-0.19518 4.78921,0.92167 0.2037,0.38802 0.86343,1.17522 1.46608,1.74934 0.60265,0.57412 1.25894,1.42348 1.45843,1.8875 0.22448,0.52215 0.7476,1.04001 1.37273,1.35893 1.18847,0.60631 1.33535,0.9079 1.33535,2.74183 0,1.44325 0.24998,1.91992 1.84149,3.51144 0.85555,0.85554 0.9598,1.36816 0.37669,1.85211 -0.58224,0.4832 -0.48006,1.00451 0.39143,1.99708 0.54213,0.61744 0.78289,1.16501 0.78289,1.78053 0,0.48889 0.10389,0.9531 0.23087,1.03158 0.41457,0.25621 0.48623,1.80854 0.12356,2.67654 -0.31751,0.75989 -0.29998,0.9461 0.16738,1.7782 0.62085,1.10537 0.63007,1.17451 0.15651,1.17451 -0.20713,0 -0.46561,-0.42326 -0.59653,-0.97683 -0.2789,-1.17931 -0.98549,-1.44378 -1.23212,-0.46118 -0.10583,0.42167 -0.0249,0.88242 0.21529,1.22531 0.49042,0.70018 0.26609,2.02496 -0.4384,2.58893 -0.47939,0.38376 -0.49762,0.52658 -0.21669,1.69762 0.23343,0.97306 0.49126,1.38452 1.07891,1.72178 1.43518,0.82368 0.83242,1.66232 -1.83743,2.55645 -0.93294,0.31244 -1.81368,0.66126 -1.95721,0.77517 -0.14353,0.1139 -0.65103,0.29054 -1.12777,0.39254 -0.47675,0.102 -1.65107,0.54504 -2.60961,0.98453 -1.49788,0.68678 -2.09121,0.80824 -4.22193,0.8643 -3.14313,0.0827 -4.47023,0.50749 -7.12786,2.28153 -3.22875,2.15528 -4.10544,2.53208 -5.84457,2.51199 l -1.51092,-0.0175 z m 25.70467,-20.77105 c 0,-0.14353 -0.12437,-0.26097 -0.27636,-0.26097 -0.152,0 -0.20379,0.11744 -0.11508,0.26097 0.0887,0.14352 0.21306,0.26096 0.27636,0.26096 0.0633,0 0.11508,-0.11744 0.11508,-0.26096 z m -1.25257,-3.18369 c -0.38401,-0.38401 -0.71102,0.37515 -0.444,1.03075 0.16591,0.40736 0.21592,0.39235 0.46304,-0.13899 0.19949,-0.42895 0.19417,-0.67855 -0.0191,-0.89176 z m -20.19844,-9.39465 c 0.52499,-0.52498 0.35601,-0.73069 -0.60021,-0.73069 -0.50235,0 -0.91336,0.094 -0.91336,0.20877 0,0.3048 0.57999,0.83508 0.91336,0.83508 0.15789,0 0.42797,-0.14092 0.60021,-0.31316 z m 11.93299,-2.04692 c 0.28263,-0.45731 -0.3603,-0.96734 -1.05257,-0.83501 -0.7624,0.14575 -0.83451,0.45251 -0.19406,0.82553 0.59353,0.3457 1.03675,0.34907 1.24663,0.009 z m -21.7605,24.96886 c 0.18419,-0.41098 0.38232,-0.60496 0.44028,-0.43105 0.058,0.1739 -0.0927,0.51016 -0.33488,0.74724 -0.41216,0.40351 -0.4189,0.38331 -0.1054,-0.31619 z"
       style="fill:#ffffff"
       sodipodi:nodetypes="sssssssssssssssssssssssssssssssssscsssssssssssssssssssssssssssscsssssssssscsssssscssccsssssssssscss" />
    <path
       style="fill:#ffffff;stroke:none"
       d="m 138.9972,469.61851 -2.19183,0.62956 -3.13384,0 -3.33903,0.1026 -1.77678,-0.1026 -1.04461,0 -0.41971,0.20519 -0.31245,1.04462 -2.08923,13.57998 -0.83476,3.12917 -1.66952,3.3437 -1.25446,2.08923 -0.52231,1.45966 0.1026,0.41971 0.5223,0 3.96861,-0.6249 3.34369,-1.15187 3.86601,-2.08923 0.40572,-0.92337 c -1.10542,-0.51511 -1.87005,-1.63802 -1.87005,-2.93798 0,-1.78799 1.44843,-3.23643 3.23644,-3.23643 0.4403,0 0.86249,0.088 1.24514,0.24716 l 3.97792,-9.02378 0.73217,-5.32567 0,-0.7275 -0.20986,-0.10725 -0.73216,0 z"
       id="path4577"
       inkscape:connector-curvature="0" />
  </g>
</svg>
